# xmcd
#
# Track frame offsets:
#	150
#	22647
#	47659
#	69426
#	89431
#	105116
#	140616
#	164051
#	187550
#	210997
#	232181
#	251311
#
# Disc length: 3713 seconds
#
# Revision: 0
# Processed by: cddbd v1.5.2PL0 Copyright (c) Steve Scherf et al.
# Submitted via: audiograbber 1.83.01
#
DISCID=8e0e7f0c
DTITLE=Dr. K. J Yesudas - Grameena Ganangal
DYEAR=1983
DGENRE=Folk
TTITLE0=Keyke Manathe
TTITLE1=Pandyalakkadavum
TTITLE2=Thekkunnu Vannalum
TTITLE3=Onnalla Randalla
TTITLE4=Anthivaaninte Maaril
TTITLE5=Punchavayal
TTITLE6=Thiru Thakrithi
TTITLE7=Enthamara Kombathe
TTITLE8=Illam Nira Vallam 
TTITLE9=Karippookkavilamma
TTITLE10=Ambalamuttathalil 
TTITLE11=Chiravarambathu
EXTD=
EXTT0=
EXTT1=
EXTT2=
EXTT3=
EXTT4=
EXTT5=
EXTT6=
EXTT7=
EXTT8=
EXTT9=
EXTT10=
EXTT11=
PLAYORDER=
